<svg width="93" height="93" viewBox="0 0 93 93" fill="none" xmlns="http://www.w3.org/2000/svg">
<rect width="93" height="93" rx="15" fill="#F9FBFF"/>
<path d="M64.6025 43.6657C65.9065 44.9593 65.9065 47.0677 64.6025 48.3613L56.919 55.9834C49.8102 63.0353 54.8354 74.9506 64.8856 74.9506H74.6929C76.5194 74.9506 78 73.4699 78 71.6435V20.3835C78 18.5571 76.5194 17.0764 74.6929 17.0764H45.8285C42.8758 17.0764 41.4032 20.6519 43.4995 22.7314L64.6025 43.6657Z" fill="black"/>
<path d="M28.3975 48.2849C27.0935 46.9913 27.0935 44.8828 28.3975 43.5892L36.081 35.9671C43.1898 28.9153 38.1646 17 28.1144 17H18.3071C16.4806 17 15 18.4806 15 20.3071V71.567C15 73.3935 16.4806 74.8741 18.3071 74.8741H47.1715C50.1242 74.8741 51.5968 71.2987 49.5005 69.2192L28.3975 48.2849Z" fill="black"/>
</svg>
