<svg width="39" height="36" viewBox="0 0 39 36" fill="none" xmlns="http://www.w3.org/2000/svg">
<path d="M30.6066 16.6532C31.3953 17.4356 31.3953 18.7107 30.6066 19.493L25.9599 24.1025C21.6609 28.3672 24.6999 35.5731 30.7779 35.5731H36.7089C37.8135 35.5731 38.7089 34.6777 38.7089 33.5731V2.57312C38.7089 1.46855 37.8135 0.573115 36.7089 0.573115H19.2529C17.4672 0.573115 16.5766 2.7354 17.8444 3.99299L30.6066 16.6532Z" fill="black"/>
<path d="M8.71129 19.4468C7.92266 18.6644 7.92266 17.3893 8.7113 16.607L13.358 11.9975C17.6571 7.73277 14.6181 0.526894 8.54005 0.526894H2.60899C1.50442 0.526894 0.608994 1.42232 0.608994 2.52689V33.5269C0.608994 34.6315 1.50442 35.5269 2.60899 35.5269H20.065C21.8507 35.5269 22.7413 33.3646 21.4736 32.107L8.71129 19.4468Z" fill="black"/>
</svg>
