<svg width="131" height="120" viewBox="0 0 131 120" fill="none" xmlns="http://www.w3.org/2000/svg">
<path d="M102.405 55.0517C105.097 57.7224 105.097 62.0752 102.405 64.7459L86.5425 80.4818C71.8662 95.0406 82.2408 119.64 102.99 119.64H123.237C127.008 119.64 130.065 116.583 130.065 112.812V6.98527C130.065 3.21464 127.008 0.157715 123.237 0.157715H63.6459C57.55 0.157715 54.5098 7.53939 58.8377 11.8326L102.405 55.0517Z" fill="white"/>
<path d="M27.6594 64.5882C24.9672 61.9175 24.9672 57.5645 27.6594 54.8938L43.5221 39.1579C58.1983 24.5993 47.8237 0 27.0749 0H6.82756C3.05672 0 0 3.05672 0 6.82756V112.654C0 116.425 3.05672 119.482 6.82756 119.482H66.4186C72.5145 119.482 75.5547 112.101 71.2268 107.807L27.6594 64.5882Z" fill="white"/>
</svg>
